<svg width="137" height="36" viewBox="0 0 137 36" fill="none" xmlns="http://www.w3.org/2000/svg">
<path d="M42.874 14.236H38.352V23H37.19V13.2H44.036V23H42.874V14.236ZM46.0125 18.1C46.0125 16.4667 46.3578 15.216 47.0485 14.348C47.7392 13.4707 48.7238 13.032 50.0025 13.032C50.6932 13.032 51.2905 13.1533 51.7945 13.396C52.2985 13.6387 52.7138 13.984 53.0405 14.432C53.3765 14.8707 53.6238 15.4027 53.7825 16.028C53.9412 16.644 54.0205 17.3347 54.0205 18.1C54.0205 19.7333 53.6705 20.9887 52.9705 21.866C52.2798 22.734 51.2905 23.168 50.0025 23.168C49.3212 23.168 48.7285 23.0467 48.2245 22.804C47.7298 22.5613 47.3145 22.2207 46.9785 21.782C46.6518 21.334 46.4092 20.802 46.2505 20.186C46.0918 19.5607 46.0125 18.8653 46.0125 18.1ZM47.2445 18.1C47.2445 18.6413 47.2958 19.1547 47.3985 19.64C47.5105 20.1253 47.6785 20.5547 47.9025 20.928C48.1265 21.292 48.4112 21.586 48.7565 21.81C49.1112 22.0247 49.5265 22.132 50.0025 22.132C50.8705 22.132 51.5518 21.8053 52.0465 21.152C52.5412 20.4893 52.7885 19.472 52.7885 18.1C52.7885 17.568 52.7325 17.0593 52.6205 16.574C52.5178 16.0793 52.3498 15.65 52.1165 15.286C51.8925 14.9127 51.6032 14.6187 51.2485 14.404C50.9032 14.18 50.4878 14.068 50.0025 14.068C49.1438 14.068 48.4672 14.3993 47.9725 15.062C47.4872 15.7153 47.2445 16.728 47.2445 18.1ZM57.8088 18.464H57.1508V23H55.9888V13.2H57.1508V17.764L57.7808 17.568L61.0708 13.2H62.4148L59.1388 17.414L58.5508 17.876L59.2648 18.436L62.8488 23H61.3788L57.8088 18.464ZM69.1958 20.284H65.5838L64.6038 23H63.4558L67.1658 13.046H67.6978L71.4218 23H70.2038L69.1958 20.284ZM65.9618 19.276H68.8458L67.7538 16.294L67.4038 14.81H67.3898L67.0397 16.322L65.9618 19.276ZM73.4792 18.366V17.386H73.7032C73.7872 17.386 73.8899 17.386 74.0112 17.386C74.1325 17.386 74.2539 17.3813 74.3752 17.372C74.5059 17.3627 74.6272 17.358 74.7392 17.358C74.8605 17.3487 74.9585 17.3347 75.0332 17.316C75.2759 17.2787 75.5045 17.218 75.7192 17.134C75.9339 17.0407 76.1205 16.924 76.2792 16.784C76.4379 16.644 76.5639 16.4807 76.6572 16.294C76.7505 16.1073 76.7972 15.902 76.7972 15.678C76.7972 15.37 76.7459 15.1133 76.6432 14.908C76.5405 14.7027 76.3959 14.5393 76.2092 14.418C76.0319 14.2873 75.8219 14.1987 75.5792 14.152C75.3459 14.096 75.0939 14.068 74.8232 14.068C74.3192 14.068 73.8899 14.1053 73.5352 14.18C73.1805 14.2453 72.8959 14.3293 72.6812 14.432L72.3732 13.508C72.5599 13.4053 72.8959 13.3027 73.3812 13.2C73.8665 13.088 74.4125 13.032 75.0192 13.032C75.3925 13.032 75.7565 13.074 76.1112 13.158C76.4752 13.2327 76.7972 13.3633 77.0772 13.55C77.3665 13.7273 77.5952 13.9747 77.7632 14.292C77.9405 14.6 78.0292 14.9827 78.0292 15.44C78.0292 15.9067 77.8752 16.3547 77.5672 16.784C77.2592 17.204 76.7972 17.5073 76.1812 17.694V17.75C76.8439 17.8433 77.3665 18.0907 77.7492 18.492C78.1319 18.8933 78.3232 19.43 78.3232 20.102C78.3232 20.634 78.2159 21.096 78.0012 21.488C77.7959 21.8707 77.5205 22.188 77.1752 22.44C76.8392 22.692 76.4472 22.8787 75.9992 23C75.5605 23.112 75.1125 23.168 74.6552 23.168C74.0392 23.168 73.5305 23.1307 73.1292 23.056C72.7372 22.9907 72.4105 22.9067 72.1492 22.804L72.4432 21.754C72.6579 21.8567 72.9565 21.9453 73.3392 22.02C73.7312 22.0947 74.2025 22.132 74.7532 22.132C75.0425 22.132 75.3272 22.0947 75.6072 22.02C75.8872 21.936 76.1345 21.8147 76.3492 21.656C76.5732 21.488 76.7505 21.2827 76.8812 21.04C77.0212 20.7973 77.0912 20.508 77.0912 20.172C77.0912 19.584 76.8859 19.1547 76.4752 18.884C76.0645 18.604 75.5279 18.4407 74.8652 18.394C74.7532 18.3847 74.6459 18.38 74.5432 18.38C74.4499 18.3707 74.3519 18.366 74.2492 18.366H73.4792ZM84.9594 20.284H81.3474L80.3674 23H79.2194L82.9294 13.046H83.4614L87.1854 23H85.9674L84.9594 20.284ZM81.7254 19.276H84.6094L83.5174 16.294L83.1674 14.81H83.1534L82.8034 16.322L81.7254 19.276ZM93.8715 14.236H90.8195V23H89.6575V14.236H86.6055V13.2H93.8715V14.236ZM95.3091 13.2H96.4711V17.008C96.5178 16.9987 96.5971 16.9893 96.7091 16.98C96.8211 16.9613 96.9425 16.9473 97.0731 16.938C97.2038 16.9287 97.3391 16.9193 97.4791 16.91C97.6191 16.9007 97.7451 16.896 97.8571 16.896C98.3051 16.896 98.7391 16.9427 99.1591 17.036C99.5885 17.12 99.9665 17.274 100.293 17.498C100.629 17.722 100.9 18.0253 101.105 18.408C101.31 18.7813 101.413 19.2573 101.413 19.836C101.413 20.396 101.315 20.8813 101.119 21.292C100.923 21.7027 100.652 22.0433 100.307 22.314C99.9618 22.5847 99.5558 22.7853 99.0891 22.916C98.6318 23.0467 98.1325 23.112 97.5911 23.112C97.4605 23.112 97.3018 23.1073 97.1151 23.098C96.9285 23.098 96.7278 23.0887 96.5131 23.07C96.3078 23.0607 96.0978 23.042 95.8831 23.014C95.6778 22.986 95.4865 22.9487 95.3091 22.902V13.2ZM97.7451 22.104C98.0811 22.104 98.3938 22.062 98.6831 21.978C98.9818 21.8847 99.2431 21.7493 99.4671 21.572C99.6911 21.3853 99.8638 21.1567 99.9851 20.886C100.116 20.606 100.181 20.284 100.181 19.92C100.181 19.528 100.111 19.2013 99.9711 18.94C99.8311 18.6787 99.6445 18.4733 99.4111 18.324C99.1871 18.1653 98.9258 18.058 98.6271 18.002C98.3285 17.9367 98.0205 17.904 97.7031 17.904C97.6191 17.904 97.5165 17.9087 97.3951 17.918C97.2738 17.9273 97.1525 17.9367 97.0311 17.946C96.9098 17.9553 96.7978 17.9693 96.6951 17.988C96.5925 18.0067 96.5178 18.0207 96.4711 18.03V22.02C96.6018 22.048 96.7885 22.0713 97.0311 22.09C97.2738 22.0993 97.5118 22.104 97.7451 22.104Z" fill="white"/>
<rect x="1" y="1" width="135" height="34" rx="1" stroke="white" stroke-width="2"/>
</svg>
